<?xml version="1.0" encoding="UTF-8" standalone="no"?>
<!-- Created with Inkscape (http://www.inkscape.org/) -->

<svg
   xmlns:dc="http://purl.org/dc/elements/1.1/"
   xmlns:cc="http://creativecommons.org/ns#"
   xmlns:rdf="http://www.w3.org/1999/02/22-rdf-syntax-ns#"
   xmlns:svg="http://www.w3.org/2000/svg"
   xmlns="http://www.w3.org/2000/svg"
   xmlns:sodipodi="http://sodipodi.sourceforge.net/DTD/sodipodi-0.dtd"
   xmlns:inkscape="http://www.inkscape.org/namespaces/inkscape"
   width="48.950588mm"
   height="53.701481mm"
   viewBox="0 0 173.44695 190.28084"
   id="svg2"
   version="1.1"
   inkscape:version="0.91 r13725"
   sodipodi:docname="Marker.svg"
   inkscape:export-filename="/Users/jan/Desktop/bla.png"
   inkscape:export-xdpi="90"
   inkscape:export-ydpi="90">
  <title
     id="title4255">Location Marker</title>
  <defs
     id="defs4" />
  <sodipodi:namedview
     id="base"
     pagecolor="#ffffff"
     bordercolor="#666666"
     borderopacity="1.0"
     inkscape:pageopacity="0.0"
     inkscape:pageshadow="2"
     inkscape:zoom="4"
     inkscape:cx="73.327955"
     inkscape:cy="97.440073"
     inkscape:document-units="px"
     inkscape:current-layer="layer1"
     showgrid="false"
     showguides="true"
     inkscape:guide-bbox="true"
     fit-margin-top="1"
     fit-margin-left="1"
     fit-margin-right="1"
     fit-margin-bottom="1"
     inkscape:window-width="1637"
     inkscape:window-height="1006"
     inkscape:window-x="43"
     inkscape:window-y="0"
     inkscape:window-maximized="1" />
  <metadata
     id="metadata7">
    <rdf:RDF>
      <cc:Work
         rdf:about="">
        <dc:format>image/svg+xml</dc:format>
        <dc:type
           rdf:resource="http://purl.org/dc/dcmitype/StillImage" />
        <dc:title>Location Marker</dc:title>
        <dc:date>2018-04-22</dc:date>
        <dc:creator>
          <cc:Agent>
            <dc:title>Jan Jastrow</dc:title>
          </cc:Agent>
        </dc:creator>
        <dc:rights>
          <cc:Agent>
            <dc:title>(c) 2018</dc:title>
          </cc:Agent>
        </dc:rights>
        <cc:license
           rdf:resource="http://creativecommons.org/licenses/by-sa/3.0/" />
      </cc:Work>
      <cc:License
         rdf:about="http://creativecommons.org/licenses/by-sa/3.0/">
        <cc:permits
           rdf:resource="http://creativecommons.org/ns#Reproduction" />
        <cc:permits
           rdf:resource="http://creativecommons.org/ns#Distribution" />
        <cc:requires
           rdf:resource="http://creativecommons.org/ns#Notice" />
        <cc:requires
           rdf:resource="http://creativecommons.org/ns#Attribution" />
        <cc:permits
           rdf:resource="http://creativecommons.org/ns#DerivativeWorks" />
        <cc:requires
           rdf:resource="http://creativecommons.org/ns#ShareAlike" />
      </cc:License>
    </rdf:RDF>
  </metadata>
  <g
     inkscape:label="Layer 1"
     inkscape:groupmode="layer"
     id="layer1"
     transform="translate(-158.00748,-400.04881)">
    <path
       style="fill:#ffffff;fill-rule:evenodd;stroke:#dbdbdb;stroke-width:0.5;stroke-linecap:butt;stroke-linejoin:miter;stroke-miterlimit:4;stroke-dasharray:none;stroke-opacity:1"
       d="m 161.80078,486.76556 c 0.0431,32.42334 18.97946,61.84741 48.47213,75.31803 2.04245,0.9692 4.34119,1.88289 6.21398,2.5719 4.57248,1.75692 9.19053,3.40883 13.11032,5.46091 4.85776,2.63083 9.49782,7.90465 12.81909,13.06905 0.57156,0.88919 1.13577,1.81245 1.69255,2.77806 0.14254,0.25224 0.50891,0.57004 0.61595,0.57271 0.12268,-0.005 0.48721,-0.32217 0.62827,-0.57179 0.55678,-0.96561 1.12098,-1.88887 1.69254,-2.77807 3.32128,-5.1644 7.96133,-10.43821 12.8191,-13.06905 3.91979,-2.05208 8.53784,-3.70398 13.11031,-5.46091 2.27858,-0.86979 4.06081,-1.55358 6.21398,-2.57189 29.49267,-13.47071 48.429,-42.89479 48.47213,-75.31813 6e-5,-45.79757 -37.12622,-82.92385 -82.93018,-82.92426 -45.80395,-4.2e-4 -82.93023,37.12586 -82.93017,82.92344 z m 159.47617,0.36344 c -10e-4,42.44517 -34.2614,76.86319 -76.54638,76.8995 l 0,-8.2e-4 c -42.28497,-0.0363 -76.54496,-34.45432 -76.54637,-76.89949 0.001,-42.44517 34.26139,-76.86319 76.54637,-76.86279 42.28498,4.1e-4 76.54496,34.41843 76.54638,76.8636 z"
       id="path3363"
       inkscape:connector-curvature="0"
       sodipodi:nodetypes="ccccccccccccccccccccc" />
  </g>
</svg>
